<?xml version="1.0" encoding="UTF-8" standalone="no"?>
<!DOCTYPE svg PUBLIC "-//W3C//DTD SVG 1.1//EN" "http://www.w3.org/Graphics/SVG/1.1/DTD/svg11.dtd">
<svg width="100%" height="100%" viewBox="0 0 1425 1425" version="1.1" xmlns="http://www.w3.org/2000/svg" xmlns:xlink="http://www.w3.org/1999/xlink" xml:space="preserve" xmlns:serif="http://www.serif.com/" style="fill-rule:evenodd;clip-rule:evenodd;stroke-miterlimit:10;">
    <g transform="matrix(2.60905,0,0,2.60905,717.724,672.664)">
        <g id="DeckerAyers.svg" transform="matrix(1,0,0,1,-240.5,-120.5)">
            <clipPath id="_clip1">
                <rect x="0" y="0" width="481" height="241"/>
            </clipPath>
            <g clip-path="url(#_clip1)">
                <g transform="matrix(0.928052,0,0,0.95043,20.8671,6.89155)">
                    <g>
                        <path d="M240.5,120.5L120.5,120.5L120.5,240.5C186.77,240.5 240.5,186.77 240.5,120.5Z" style="fill:url(#_Linear2);fill-rule:nonzero;stroke:rgb(115,115,115);stroke-opacity:0;stroke-width:5.38px;"/>
                        <g transform="matrix(-3.82857e-16,-1,1,-3.82857e-16,120,240)">
                            <path d="M240.5,0.5L120.5,0.5L120.5,120.5C186.77,120.5 240.5,66.77 240.5,0.5Z" style="fill:url(#_Linear3);fill-rule:nonzero;stroke:rgb(115,115,115);stroke-opacity:0;stroke-width:5.38px;"/>
                        </g>
                        <g transform="matrix(-1,7.65714e-16,-7.65714e-16,-1,120,361.052)">
                            <path d="M120.5,120.5L0.5,120.5L0.5,240.5C66.77,240.5 120.5,186.77 120.5,120.5Z" style="fill:url(#_Linear4);fill-rule:nonzero;stroke:rgb(115,115,115);stroke-opacity:0;stroke-width:5.38px;"/>
                        </g>
                        <g transform="matrix(-3.82857e-16,1,-1,-3.82857e-16,120,-1.05216)">
                            <path d="M120.5,0.5L0.5,0.5L0.5,120.5C66.77,120.5 120.5,66.77 120.5,0.5Z" style="fill:url(#_Linear5);fill-rule:nonzero;stroke:rgb(115,115,115);stroke-opacity:0;stroke-width:5.38px;"/>
                        </g>
                        <g transform="matrix(-3.82857e-16,-1,1,-3.82857e-16,360,480)">
                            <path d="M480.5,0.5L360.5,0.5L360.5,120.5C426.77,120.5 480.5,66.77 480.5,0.5Z" style="fill:url(#_Linear6);fill-rule:nonzero;stroke:rgb(115,115,115);stroke-opacity:0;stroke-width:5.38px;"/>
                        </g>
                        <g transform="matrix(-1,7.65714e-16,-7.65714e-16,-1,600,120)">
                            <path d="M360.5,0.5L240.5,0.5L240.5,120.5C306.77,120.5 360.5,66.77 360.5,0.5Z" style="fill:url(#_Linear7);fill-rule:nonzero;stroke:rgb(115,115,115);stroke-opacity:0;stroke-width:5.38px;"/>
                        </g>
                        <g transform="matrix(7.04481e-16,1,-1,7.04481e-16,601.078,-240)">
                            <path d="M480.5,120.5L360.5,120.5L360.5,240.5C426.77,240.5 480.5,186.77 480.5,120.5Z" style="fill:url(#_Linear8);fill-rule:nonzero;stroke:rgb(115,115,115);stroke-opacity:0;stroke-width:5.38px;"/>
                        </g>
                        <path d="M360.5,120.5L240.5,120.5L240.5,240.5C306.77,240.5 360.5,186.77 360.5,120.5Z" style="fill:url(#_Linear9);fill-rule:nonzero;stroke:rgb(115,115,115);stroke-opacity:0;stroke-width:5.38px;"/>
                    </g>
                </g>
            </g>
        </g>
        <g id="DeckerAyers.svg1" serif:id="DeckerAyers.svg">
        </g>
    </g>
    <defs>
        <linearGradient id="_Linear2" x1="0" y1="0" x2="1" y2="0" gradientUnits="userSpaceOnUse" gradientTransform="matrix(335.577,98.1549,-100.522,327.676,-11.9485,24.3619)"><stop offset="0" style="stop-color:white;stop-opacity:1"/><stop offset="1" style="stop-color:white;stop-opacity:1"/></linearGradient>
        <linearGradient id="_Linear3" x1="0" y1="0" x2="1" y2="0" gradientUnits="userSpaceOnUse" gradientTransform="matrix(-98.1549,335.577,-327.676,-100.522,215.638,-131.948)"><stop offset="0" style="stop-color:white;stop-opacity:1"/><stop offset="1" style="stop-color:white;stop-opacity:1"/></linearGradient>
        <linearGradient id="_Linear4" x1="0" y1="0" x2="1" y2="0" gradientUnits="userSpaceOnUse" gradientTransform="matrix(-335.577,-98.1549,100.522,-327.676,131.948,336.69)"><stop offset="0" style="stop-color:white;stop-opacity:1"/><stop offset="1" style="stop-color:white;stop-opacity:1"/></linearGradient>
        <linearGradient id="_Linear5" x1="0" y1="0" x2="1" y2="0" gradientUnits="userSpaceOnUse" gradientTransform="matrix(98.1549,-335.577,327.676,100.522,25.4141,131.948)"><stop offset="0" style="stop-color:white;stop-opacity:1"/><stop offset="1" style="stop-color:white;stop-opacity:1"/></linearGradient>
        <linearGradient id="_Linear6" x1="0" y1="0" x2="1" y2="0" gradientUnits="userSpaceOnUse" gradientTransform="matrix(-98.1549,335.577,-327.676,-100.522,455.638,-371.948)"><stop offset="0" style="stop-color:white;stop-opacity:1"/><stop offset="1" style="stop-color:white;stop-opacity:1"/></linearGradient>
        <linearGradient id="_Linear7" x1="0" y1="0" x2="1" y2="0" gradientUnits="userSpaceOnUse" gradientTransform="matrix(-335.577,-98.1549,100.522,-327.676,611.948,95.6381)"><stop offset="0" style="stop-color:white;stop-opacity:1"/><stop offset="1" style="stop-color:white;stop-opacity:1"/></linearGradient>
        <linearGradient id="_Linear8" x1="0" y1="0" x2="1" y2="0" gradientUnits="userSpaceOnUse" gradientTransform="matrix(98.1549,-335.577,327.676,100.522,264.362,611.948)"><stop offset="0" style="stop-color:white;stop-opacity:1"/><stop offset="1" style="stop-color:white;stop-opacity:1"/></linearGradient>
        <linearGradient id="_Linear9" x1="0" y1="0" x2="1" y2="0" gradientUnits="userSpaceOnUse" gradientTransform="matrix(335.577,98.1549,-100.522,327.676,-11.9485,24.3619)"><stop offset="0" style="stop-color:white;stop-opacity:1"/><stop offset="1" style="stop-color:white;stop-opacity:1"/></linearGradient>
    </defs>
</svg>
