<?xml version="1.0" encoding="UTF-8" standalone="no"?><!DOCTYPE svg PUBLIC "-//W3C//DTD SVG 1.1//EN" "http://www.w3.org/Graphics/SVG/1.1/DTD/svg11.dtd"><svg width="100%" height="100%" viewBox="0 0 64 64" version="1.1" xmlns="http://www.w3.org/2000/svg" xmlns:xlink="http://www.w3.org/1999/xlink" xml:space="preserve" xmlns:serif="http://www.serif.com/" style="fill-rule:evenodd;clip-rule:evenodd;stroke-linejoin:round;stroke-miterlimit:2;"><path d="M10.735,27.506l-0,-10.61l-4.041,-0l0,-1.422l9.681,-0l0,1.422l-4.04,-0l-0,10.61l-1.6,0Z" style="fill:#fff;fill-rule:nonzero;"/><path d="M19.696,27.716c-1.438,0 -2.555,-0.405 -3.349,-1.216c-0.795,-0.811 -1.192,-1.962 -1.192,-3.455c-0,-1.47 0.385,-2.641 1.155,-3.511c0.771,-0.87 1.778,-1.305 3.023,-1.305c0.56,0 1.056,0.081 1.487,0.243c0.431,0.161 0.808,0.414 1.131,0.759c0.323,0.345 0.571,0.767 0.743,1.265c0.173,0.498 0.259,1.108 0.259,1.83l-0,0.824l-6.255,0c0,1.051 0.264,1.854 0.792,2.409c0.528,0.554 1.258,0.832 2.19,0.832c0.334,-0 0.661,-0.038 0.982,-0.113c0.321,-0.076 0.61,-0.173 0.869,-0.291c0.274,-0.124 0.506,-0.244 0.695,-0.36c0.188,-0.116 0.344,-0.225 0.468,-0.327l0.089,-0l0,1.657c-0.178,0.07 -0.398,0.157 -0.662,0.262c-0.264,0.105 -0.501,0.187 -0.712,0.247c-0.296,0.08 -0.564,0.142 -0.804,0.186c-0.239,0.043 -0.542,0.064 -0.909,0.064Zm1.778,-5.729c-0.011,-0.41 -0.059,-0.763 -0.145,-1.059c-0.087,-0.296 -0.21,-0.547 -0.372,-0.751c-0.178,-0.227 -0.405,-0.399 -0.683,-0.518c-0.277,-0.118 -0.621,-0.177 -1.03,-0.177c-0.404,-0 -0.748,0.06 -1.031,0.182c-0.282,0.121 -0.54,0.297 -0.771,0.529c-0.227,0.237 -0.399,0.499 -0.517,0.788c-0.119,0.288 -0.194,0.623 -0.227,1.006l4.776,-0Z" style="fill:#fff;fill-rule:nonzero;"/><path d="M31.503,27.506l-1.867,0l-2.19,-3.41l-2.255,3.41l-1.721,0l3.136,-4.477l-3.104,-4.549l1.867,-0l2.174,3.377l2.23,-3.377l1.73,-0l-3.12,4.444l3.12,4.582Z" style="fill:#fff;fill-rule:nonzero;"/><path d="M35.414,27.684c-0.83,-0 -1.476,-0.236 -1.94,-0.707c-0.463,-0.472 -0.695,-1.216 -0.695,-2.235l0,-5.002l-1.026,0l0,-1.26l1.026,-0l0,-2.594l1.52,-0l-0,2.594l2.796,-0l-0,1.26l-2.796,0l-0,4.291c-0,0.458 0.008,0.811 0.024,1.059c0.016,0.248 0.078,0.479 0.186,0.695c0.091,0.188 0.239,0.33 0.444,0.424c0.205,0.094 0.482,0.141 0.832,0.141c0.248,0 0.488,-0.036 0.72,-0.109c0.231,-0.072 0.398,-0.133 0.501,-0.181l0.089,-0l-0,1.365c-0.286,0.081 -0.576,0.144 -0.869,0.19c-0.294,0.046 -0.564,0.069 -0.812,0.069Z" style="fill:#fff;fill-rule:nonzero;"/><path d="M42.878,36.262l-6.504,-0l0,-1.48c0.467,-0.443 0.909,-0.868 1.324,-1.274c0.415,-0.405 0.821,-0.828 1.217,-1.266c0.802,-0.883 1.35,-1.589 1.642,-2.12c0.293,-0.531 0.439,-1.079 0.439,-1.646c-0,-0.292 -0.046,-0.549 -0.138,-0.771c-0.092,-0.222 -0.218,-0.406 -0.379,-0.552c-0.165,-0.142 -0.356,-0.248 -0.573,-0.319c-0.217,-0.07 -0.455,-0.106 -0.715,-0.106c-0.25,0 -0.504,0.032 -0.761,0.096c-0.257,0.063 -0.503,0.142 -0.739,0.237c-0.198,0.08 -0.39,0.177 -0.574,0.29c-0.184,0.113 -0.332,0.21 -0.445,0.29l-0.078,0l-0,-1.5c0.292,-0.146 0.699,-0.289 1.221,-0.428c0.521,-0.14 1.015,-0.209 1.482,-0.209c0.982,-0 1.751,0.261 2.308,0.782c0.556,0.521 0.835,1.228 0.835,2.12c-0,0.41 -0.049,0.79 -0.145,1.139c-0.097,0.349 -0.23,0.672 -0.4,0.97c-0.175,0.306 -0.385,0.611 -0.63,0.913c-0.246,0.302 -0.505,0.599 -0.779,0.891c-0.443,0.482 -0.937,0.982 -1.482,1.501c-0.545,0.519 -0.981,0.929 -1.306,1.231l5.18,0l0,1.211Z" style="fill:#fff;fill-rule:nonzero;"/><path d="M37.972,45.559l0,-9.292l-3.538,-0l-0,-1.246l8.478,0l0,1.246l-3.538,-0l-0,9.292l-1.402,0Z" style="fill:#fff;fill-rule:nonzero;"/><path d="M50.011,45.559l-1.635,0l-1.918,-2.986l-1.974,2.986l-1.508,0l2.746,-3.921l-2.718,-3.984l1.635,-0l1.904,2.958l1.953,-2.958l1.515,-0l-2.732,3.892l2.732,4.013Z" style="fill:#fff;fill-rule:nonzero;"/><path d="M53.436,45.715c-0.726,0 -1.292,-0.206 -1.698,-0.619c-0.406,-0.413 -0.609,-1.065 -0.609,-1.957l0,-4.381l-0.899,-0l0,-1.104l0.899,-0l0,-2.272l1.331,0l-0,2.272l2.449,-0l-0,1.104l-2.449,-0l-0,3.758c-0,0.401 0.007,0.71 0.021,0.927c0.014,0.217 0.068,0.42 0.163,0.609c0.08,0.165 0.21,0.289 0.389,0.371c0.179,0.083 0.422,0.124 0.729,0.124c0.217,0 0.427,-0.032 0.63,-0.095c0.203,-0.064 0.349,-0.117 0.439,-0.16l0.078,0l-0,1.197c-0.251,0.07 -0.504,0.126 -0.761,0.166c-0.257,0.04 -0.495,0.06 -0.712,0.06Z" style="fill:#fff;fill-rule:nonzero;"/></svg>