<?xml version="1.0" encoding="UTF-8" standalone="no"?><!DOCTYPE svg PUBLIC "-//W3C//DTD SVG 1.1//EN" "http://www.w3.org/Graphics/SVG/1.1/DTD/svg11.dtd"><svg width="100%" height="100%" viewBox="0 0 64 64" version="1.1" xmlns="http://www.w3.org/2000/svg" xmlns:xlink="http://www.w3.org/1999/xlink" xml:space="preserve" xmlns:serif="http://www.serif.com/" style="fill-rule:evenodd;clip-rule:evenodd;stroke-linejoin:round;stroke-miterlimit:2;"><path d="M20.459,30.186l-0,-6.903l-2.478,0l0,-0.925l5.936,-0l0,0.925l-2.477,0l-0,6.903l-0.981,0Z" style="fill:#fff;fill-rule:nonzero;"/><path d="M25.953,30.323c-0.881,-0 -1.566,-0.264 -2.053,-0.791c-0.488,-0.528 -0.731,-1.277 -0.731,-2.248c-0,-0.957 0.236,-1.718 0.708,-2.284c0.473,-0.566 1.09,-0.849 1.854,-0.849c0.343,-0 0.647,0.052 0.911,0.157c0.264,0.105 0.496,0.27 0.694,0.495c0.198,0.224 0.35,0.498 0.456,0.822c0.105,0.325 0.158,0.721 0.158,1.191l0,0.536l-3.835,0c0,0.684 0.162,1.206 0.486,1.567c0.324,0.361 0.771,0.542 1.343,0.542c0.204,-0 0.405,-0.025 0.602,-0.074c0.196,-0.049 0.374,-0.112 0.532,-0.189c0.169,-0.081 0.311,-0.159 0.426,-0.234c0.116,-0.076 0.212,-0.147 0.288,-0.213l0.054,-0l0,1.078c-0.109,0.045 -0.244,0.102 -0.406,0.17c-0.162,0.069 -0.307,0.122 -0.436,0.161c-0.182,0.052 -0.346,0.093 -0.493,0.121c-0.147,0.028 -0.333,0.042 -0.558,0.042Zm1.091,-3.728c-0.007,-0.266 -0.037,-0.496 -0.09,-0.688c-0.052,-0.193 -0.128,-0.356 -0.228,-0.489c-0.109,-0.148 -0.248,-0.26 -0.418,-0.337c-0.17,-0.077 -0.381,-0.115 -0.632,-0.115c-0.248,-0 -0.458,0.039 -0.632,0.118c-0.173,0.079 -0.331,0.193 -0.473,0.344c-0.139,0.154 -0.244,0.325 -0.317,0.513c-0.073,0.187 -0.119,0.405 -0.139,0.654l2.929,0Z" style="fill:#fff;fill-rule:nonzero;"/><path d="M33.193,30.186l-1.145,0l-1.343,-2.219l-1.382,2.219l-1.056,0l1.923,-2.912l-1.903,-2.96l1.145,-0l1.333,2.197l1.367,-2.197l1.061,-0l-1.913,2.891l1.913,2.981Z" style="fill:#fff;fill-rule:nonzero;"/><path d="M35.591,30.302c-0.509,-0 -0.905,-0.154 -1.19,-0.46c-0.284,-0.307 -0.426,-0.791 -0.426,-1.454l0,-3.254l-0.629,-0l0,-0.82l0.629,-0l0,-1.688l0.932,-0l-0,1.688l1.714,-0l0,0.82l-1.714,-0l-0,2.791c-0,0.298 0.005,0.528 0.015,0.689c0.01,0.161 0.048,0.312 0.114,0.452c0.056,0.123 0.147,0.215 0.272,0.276c0.126,0.062 0.296,0.092 0.511,0.092c0.152,0 0.299,-0.023 0.441,-0.071c0.142,-0.047 0.244,-0.086 0.307,-0.118l0.054,0l0,0.889c-0.175,0.052 -0.352,0.093 -0.532,0.123c-0.18,0.03 -0.346,0.045 -0.498,0.045Z" style="fill:#fff;fill-rule:nonzero;"/><path d="M40.168,35.882l-3.988,0l-0,-0.962c0.286,-0.289 0.557,-0.565 0.811,-0.829c0.255,-0.264 0.504,-0.539 0.747,-0.824c0.491,-0.574 0.827,-1.034 1.006,-1.379c0.18,-0.345 0.269,-0.702 0.269,-1.071c0,-0.19 -0.028,-0.357 -0.084,-0.502c-0.057,-0.144 -0.134,-0.264 -0.232,-0.359c-0.102,-0.092 -0.219,-0.161 -0.352,-0.207c-0.133,-0.046 -0.279,-0.069 -0.438,-0.069c-0.154,0 -0.309,0.021 -0.467,0.062c-0.157,0.042 -0.309,0.093 -0.453,0.154c-0.122,0.053 -0.239,0.116 -0.352,0.189c-0.113,0.074 -0.204,0.137 -0.273,0.189l-0.048,0l0,-0.976c0.18,-0.095 0.429,-0.188 0.749,-0.279c0.319,-0.09 0.622,-0.136 0.909,-0.136c0.602,0 1.073,0.17 1.415,0.509c0.341,0.339 0.512,0.799 0.512,1.379c-0,0.267 -0.03,0.514 -0.089,0.742c-0.06,0.227 -0.141,0.437 -0.246,0.63c-0.107,0.2 -0.235,0.398 -0.386,0.594c-0.15,0.197 -0.309,0.39 -0.477,0.581c-0.272,0.313 -0.575,0.638 -0.909,0.976c-0.334,0.337 -0.601,0.605 -0.801,0.801l3.177,-0l-0,0.787Z" style="fill:#fff;fill-rule:nonzero;"/><path d="M37.159,41.931l0,-6.045l-2.169,-0l-0,-0.811l5.198,0l0,0.811l-2.169,-0l-0,6.045l-0.86,0Z" style="fill:#fff;fill-rule:nonzero;"/><path d="M44.541,41.931l-1.002,0l-1.176,-1.943l-1.211,1.943l-0.924,0l1.683,-2.55l-1.666,-2.593l1.002,0l1.168,1.925l1.197,-1.925l0.929,0l-1.675,2.533l1.675,2.61Z" style="fill:#fff;fill-rule:nonzero;"/><path d="M46.641,42.033c-0.445,-0 -0.792,-0.135 -1.041,-0.403c-0.249,-0.269 -0.373,-0.693 -0.373,-1.273l-0,-2.851l-0.551,0l-0,-0.718l0.551,0l-0,-1.478l0.815,0l0,1.478l1.502,0l-0,0.718l-1.502,0l0,2.445c0,0.261 0.005,0.462 0.013,0.604c0.009,0.141 0.042,0.273 0.1,0.396c0.049,0.107 0.129,0.188 0.239,0.241c0.11,0.054 0.259,0.081 0.447,0.081c0.133,-0 0.262,-0.021 0.386,-0.062c0.125,-0.042 0.214,-0.076 0.269,-0.104l0.048,0l-0,0.778c-0.153,0.046 -0.309,0.082 -0.467,0.109c-0.157,0.026 -0.303,0.039 -0.436,0.039Z" style="fill:#fff;fill-rule:nonzero;"/></svg>